<?xml version="1.0" encoding="utf-8"?>
<!-- Generator: Adobe Illustrator 18.1.1, SVG Export Plug-In . SVG Version: 6.00 Build 0)  -->
<!DOCTYPE svg PUBLIC "-//W3C//DTD SVG 1.1//EN" "http://www.w3.org/Graphics/SVG/1.1/DTD/svg11.dtd">
<svg version="1.1" id="Layer_1" xmlns="http://www.w3.org/2000/svg" xmlns:xlink="http://www.w3.org/1999/xlink" x="0px" y="0px"
	 width="38.3px" height="30.1px" viewBox="0 0 38.3 30.1" enable-background="new 0 0 38.3 30.1" xml:space="preserve">
<g>
	<g>
		<path fill="#FFFFFF" d="M29.7,30.1c-4.4,0-9.6-2.9-9.6-11.1c0-8.2,3.8-14.3,6.6-18.1C27.3,0.2,28,0,28.4,0c0.5,0,1.1,0.2,1.7,0.6
			L33,2.4c0.6,0.4,0.8,0.9,0.9,1.3c0.1,0.7-0.1,1.4-0.7,2.2c-2.4,3.2-3.9,6.4-4.1,9c0.7-0.2,1.4-0.3,2.2-0.3c4.2,0,7.1,3.1,7.1,7.6
			C38.3,26.7,34.6,30.1,29.7,30.1z M28.4,2c0,0-0.1,0-0.1,0.1C25.4,6,22.1,11.5,22.1,19c0,5.7,2.8,9.1,7.6,9.1
			c3.8,0,6.7-2.5,6.7-5.9c0-2.6-1.3-5.6-5.1-5.6c-0.9,0-2,0.3-2.5,0.7l-1.2,0.8l-0.4-1.4c-0.1-0.4-0.1-0.6-0.1-0.9
			c0-4.1,2.5-8.2,4.6-11c0.3-0.4,0.3-0.6,0.3-0.6L29,2.2C28.7,2,28.5,2,28.4,2z M9.6,30.1C5.2,30.1,0,27.2,0,19
			C0,10.9,3.8,4.8,6.6,0.9C7.2,0.2,7.9,0,8.4,0C8.9,0,9.4,0.2,10,0.6l2.9,1.9c0.6,0.4,0.8,0.9,0.9,1.3c0.1,0.7-0.1,1.4-0.7,2.2
			c-2.4,3.2-3.9,6.3-4.1,9c0.7-0.2,1.4-0.3,2.2-0.3c4.2,0,7.1,3.1,7.1,7.6C18.3,26.7,14.5,30.1,9.6,30.1z M8.4,2c0,0-0.1,0-0.1,0.1
			C5.3,6,2,11.5,2,19c0,5.7,2.8,9.1,7.6,9.1c3.8,0,6.7-2.5,6.7-5.9c0-2.6-1.3-5.6-5.1-5.6c-0.9,0-2,0.3-2.5,0.7l-1.2,0.8l-0.4-1.4
			C7,16.2,7,16.1,7,15.7c0-4.1,2.5-8.2,4.6-11c0.3-0.4,0.3-0.6,0.3-0.6L8.9,2.2C8.6,2,8.4,2,8.4,2z"/>
	</g>
</g>
</svg>
