<?xml version="1.0" encoding="utf-8"?>
<!-- Generator: Adobe Illustrator 18.1.1, SVG Export Plug-In . SVG Version: 6.00 Build 0)  -->
<!DOCTYPE svg PUBLIC "-//W3C//DTD SVG 1.1//EN" "http://www.w3.org/Graphics/SVG/1.1/DTD/svg11.dtd">
<svg version="1.1" id="Layer_1" xmlns="http://www.w3.org/2000/svg" xmlns:xlink="http://www.w3.org/1999/xlink" x="0px" y="0px"
	 width="38.3px" height="30.1px" viewBox="0 0 38.3 30.1" enable-background="new 0 0 38.3 30.1" xml:space="preserve">
<g>
	<g>
		<path fill="#FFFFFF" d="M8.7,0c4.4,0,9.6,2.9,9.6,11.1c0,8.2-3.8,14.3-6.6,18.1c-0.6,0.7-1.3,0.9-1.7,0.9c-0.5,0-1.1-0.2-1.7-0.6
			l-2.9-1.9c-0.6-0.4-0.8-0.9-0.9-1.3c-0.1-0.7,0.1-1.4,0.7-2.2c2.4-3.2,3.9-6.4,4.1-9c-0.7,0.2-1.4,0.3-2.2,0.3
			C2.8,15.6,0,12.5,0,7.9C0,3.4,3.7,0,8.7,0z M9.9,28.1c0,0,0.1,0,0.1-0.1c2.9-3.9,6.2-9.4,6.2-16.9c0-5.7-2.8-9.1-7.6-9.1
			C4.9,2,2,4.5,2,7.9c0,2.6,1.3,5.6,5.1,5.6c0.9,0,2-0.3,2.5-0.7l1.2-0.8l0.4,1.4c0.1,0.4,0.1,0.6,0.1,0.9c0,4.1-2.5,8.2-4.6,11
			C6.4,25.8,6.4,26,6.4,26l2.9,1.9C9.7,28.1,9.8,28.1,9.9,28.1z M28.8,0c4.4,0,9.6,2.9,9.6,11.1c0,8.2-3.8,14.3-6.6,18.1
			c-0.6,0.7-1.3,0.9-1.7,0.9c-0.5,0-1.1-0.2-1.7-0.6l-2.9-1.9c-0.6-0.4-0.8-0.9-0.9-1.3c-0.1-0.7,0.1-1.4,0.7-2.2
			c2.4-3.2,3.9-6.3,4.1-9c-0.7,0.2-1.4,0.3-2.2,0.3c-4.2,0-7.1-3.1-7.1-7.6C20.1,3.4,23.8,0,28.8,0z M30,28.1c0,0,0.1,0,0.1-0.1
			c2.9-3.9,6.2-9.4,6.2-16.9c0-5.7-2.8-9.1-7.6-9.1c-3.8,0-6.7,2.5-6.7,5.9c0,2.6,1.3,5.6,5.1,5.6c0.9,0,2-0.3,2.5-0.7l1.2-0.8
			l0.4,1.4c0.1,0.4,0.1,0.6,0.1,0.9c0,4.1-2.5,8.2-4.6,11c-0.3,0.4-0.3,0.6-0.3,0.6l2.9,1.9C29.8,28.1,29.9,28.1,30,28.1z"/>
	</g>
</g>
</svg>
