<?xml version="1.0" encoding="utf-8"?>
<!-- Generator: Adobe Illustrator 18.1.1, SVG Export Plug-In . SVG Version: 6.00 Build 0)  -->
<!DOCTYPE svg PUBLIC "-//W3C//DTD SVG 1.1//EN" "http://www.w3.org/Graphics/SVG/1.1/DTD/svg11.dtd">
<svg version="1.1" id="Layer_1" xmlns="http://www.w3.org/2000/svg" xmlns:xlink="http://www.w3.org/1999/xlink" x="0px" y="0px"
	 width="54px" height="54px" viewBox="-488 358 54 54" enable-background="new -488 358 54 54" xml:space="preserve">
<g>
	<g>
		<g>
			<path fill="#FFFFFF" d="M-461,410c-13.8,0-25-11.2-25-25s11.2-25,25-25s25,11.2,25,25S-447.2,410-461,410z M-461,362
				c-12.7,0-23,10.3-23,23s10.3,23,23,23s23-10.3,23-23S-448.3,362-461,362z"/>
		</g>
		<g>
			<g>
				<path fill="#FFFFFF" d="M-457.2,382.3h-6.9v-7.6c0-0.3-0.3-0.7-0.7-0.7h-4.2c-0.3,0-0.7,0.3-0.7,0.7v7.6h-6.8
					c-0.3,0-0.7,0.3-0.7,0.7v4.2c0,0.4,0.3,0.7,0.7,0.7h6.9v7.6c0,0.3,0.3,0.7,0.7,0.7h4.2c0.4,0,0.7-0.3,0.7-0.7v-7.6h6.9
					c0.3,0,0.7-0.3,0.7-0.7V383C-456.6,382.6-456.9,382.3-457.2,382.3z"/>
			</g>
			<g>
				<path fill="#FFFFFF" d="M-454.8,374.7c0-0.3,0.3-0.7,0.7-0.7h4.1c0.3,0,0.7,0.3,0.7,0.7v20.6c0,0.3-0.3,0.7-0.7,0.7h-4.2
					c-0.4,0-0.7-0.3-0.7-0.7"/>
			</g>
		</g>
	</g>
</g>
</svg>
