<?xml version="1.0" encoding="utf-8"?>
<!-- Generator: Adobe Illustrator 18.1.1, SVG Export Plug-In . SVG Version: 6.00 Build 0)  -->
<!DOCTYPE svg PUBLIC "-//W3C//DTD SVG 1.1//EN" "http://www.w3.org/Graphics/SVG/1.1/DTD/svg11.dtd">
<svg version="1.1" id="Layer_1" xmlns="http://www.w3.org/2000/svg" xmlns:xlink="http://www.w3.org/1999/xlink" x="0px" y="0px"
	 width="124px" height="140px" viewBox="0 0 124 140" enable-background="new 0 0 124 140" xml:space="preserve">
<g>
	<g>
		<g>
			<path fill="#FFFFFF" d="M62,62.2c-17.3,0-31.3-14-31.3-31.1S44.7,0,62,0s31.3,14,31.3,31.1S79.3,62.2,62,62.2z M62,2.5
				c-15.9,0-28.8,12.8-28.8,28.6S46.1,59.7,62,59.7s28.8-12.8,28.8-28.6S77.9,2.5,62,2.5z"/>
		</g>
		<g>
			<g>
				<path fill="#FFFFFF" d="M66.7,27.7h-8.7v-9.4c0-0.4-0.4-0.8-0.8-0.8H52c-0.4,0-0.8,0.4-0.8,0.8v9.4h-8.7c-0.4,0-0.8,0.4-0.8,0.8
					v5.2c0,0.5,0.4,0.8,0.8,0.8h8.7v9.4c0,0.4,0.4,0.8,0.8,0.8h5.2c0.5,0,0.8-0.4,0.8-0.8v-9.4h8.7c0.4,0,0.8-0.3,0.8-0.8v-5.2
					C67.6,28.1,67.2,27.7,66.7,27.7z"/>
			</g>
			<g>
				<path fill="#FFFFFF" d="M69.8,18.3c0-0.4,0.4-0.8,0.8-0.8h5.2c0.4,0,0.8,0.4,0.8,0.8v25.6c0,0.4-0.4,0.8-0.8,0.8h-5.2
					c-0.5,0-0.8-0.4-0.8-0.8"/>
			</g>
		</g>
	</g>
	<g>
		<path fill="#FFFFFF" d="M0,93.4c0-0.4,0.3-0.7,0.7-0.7H2c0.4,0,0.7,0.3,0.7,0.7v10.2h14.3V93.4c0-0.4,0.3-0.7,0.7-0.7h1.4
			c0.4,0,0.7,0.3,0.7,0.7v23.2c0,0.4-0.3,0.7-0.7,0.7h-1.4c-0.4,0-0.7-0.3-0.7-0.7V106H2.7v10.6c0,0.4-0.3,0.7-0.7,0.7H0.7
			c-0.4,0-0.7-0.3-0.7-0.7V93.4z"/>
		<path fill="#FFFFFF" d="M31.8,93.4c0-0.4,0.3-0.7,0.7-0.7h1.4c0.4,0,0.7,0.3,0.7,0.7v23.2c0,0.4-0.3,0.7-0.7,0.7h-1.4
			c-0.4,0-0.7-0.3-0.7-0.7V93.4z"/>
		<path fill="#FFFFFF" d="M46.7,93c0-0.4,0.3-0.6,0.7-0.6h0.5c0.2,0,0.4,0.1,0.6,0.3l15.7,19.4c0,0,0,0,0.1,0V93.4
			c0-0.4,0.3-0.7,0.7-0.7h1.2c0.4,0,0.7,0.3,0.7,0.7V117c0,0.4-0.3,0.6-0.7,0.6h-0.3c-0.2,0-0.4-0.1-0.6-0.3l-16-19.8h0v19.1
			c0,0.4-0.3,0.7-0.7,0.7h-1.2c-0.4,0-0.7-0.3-0.7-0.7V93z"/>
		<path fill="#FFFFFF" d="M88.7,92.3c3.6,0,6.1,1.2,8.5,3.3c0.3,0.3,0.3,0.7,0,1c-0.3,0.3-0.7,0.7-1,1c-0.3,0.4-0.5,0.3-0.9,0
			c-1.8-1.6-4.3-2.7-6.7-2.7c-5.6,0-9.8,4.6-9.8,10.1c0,5.4,4.2,10.1,9.8,10.1c3.9,0,6.4-1.5,6.4-1.5v-4.9H91
			c-0.4,0-0.7-0.3-0.7-0.6v-1.3c0-0.4,0.3-0.7,0.7-0.7h6.1c0.4,0,0.6,0.3,0.6,0.7v8c0,0.2-0.1,0.5-0.3,0.6c0,0-3.6,2.3-8.7,2.3
			C81.7,117.6,76,112,76,105S81.7,92.3,88.7,92.3z"/>
		<path fill="#FFFFFF" d="M108.7,93.4c0-0.4,0.3-0.7,0.7-0.7h13.9c0.4,0,0.7,0.3,0.7,0.7v1c0,0.4-0.3,0.7-0.7,0.7h-11.9v8.6h10.1
			c0.4,0,0.7,0.3,0.7,0.7v1c0,0.4-0.3,0.7-0.7,0.7h-10.1v8.9h11.9c0.4,0,0.7,0.3,0.7,0.7v1c0,0.4-0.3,0.7-0.7,0.7h-13.9
			c-0.4,0-0.7-0.3-0.7-0.7V93.4z"/>
	</g>
	<g>
		<path fill="#FFFFFF" d="M16.2,139.6l4.4-9.4c0-0.1,0.1-0.2,0.2-0.2H21c0.1,0,0.2,0.1,0.2,0.2l4.4,9.4c0.1,0.2,0,0.4-0.2,0.4h-1.6
			c-0.3,0-0.4-0.1-0.5-0.4l-0.5-1.1H19l-0.5,1.1c-0.1,0.2-0.2,0.3-0.5,0.3h-1.5C16.2,139.9,16.1,139.7,16.2,139.6z M22,136.6
			l-1.1-2.3h0l-1.1,2.3H22z"/>
		<path fill="#FFFFFF" d="M28.7,130.2c0-0.1,0.1-0.3,0.3-0.3h0.2c0.1,0,0.2,0.1,0.4,0.2l5.4,5.1h0v-5c0-0.1,0.1-0.3,0.3-0.3h1.7
			c0.1,0,0.3,0.1,0.3,0.3v9.4c0,0.2-0.1,0.3-0.3,0.3h-0.1c-0.1,0-0.2,0-0.4-0.2l-5.5-5.5h0v5.2c0,0.1-0.1,0.3-0.3,0.3H29
			c-0.1,0-0.3-0.1-0.3-0.3L28.7,130.2z"/>
		<path fill="#FFFFFF" d="M40.6,139.5l4.4-9.4c0-0.1,0.1-0.2,0.2-0.2h0.1c0.1,0,0.2,0.1,0.2,0.2l4.4,9.4c0.1,0.2,0,0.4-0.2,0.4h-1.6
			c-0.3,0-0.4-0.1-0.5-0.4l-0.5-1.1h-3.8l-0.5,1.1c-0.1,0.2-0.2,0.3-0.5,0.3h-1.5C40.6,139.9,40.5,139.7,40.6,139.5z M46.3,136.5
			l-1.1-2.3h0l-1.1,2.3H46.3z"/>
		<path fill="#FFFFFF" d="M52.7,130.2c0-0.1,0.1-0.3,0.3-0.3h1.7c0.1,0,0.3,0.1,0.3,0.3v7.5h3.3c0.2,0,0.3,0.1,0.3,0.3v1.5
			c0,0.1-0.1,0.3-0.3,0.3h-5.3c-0.2,0-0.3-0.1-0.3-0.3V130.2z"/>
		<path fill="#FFFFFF" d="M63.9,135l-3.1-4.7c-0.1-0.2,0-0.4,0.2-0.4h1.8c0.1,0,0.2,0.1,0.2,0.1l2,2.9l2-2.9c0-0.1,0.1-0.1,0.2-0.1
			H69c0.2,0,0.3,0.2,0.2,0.4l-3.1,4.6v4.5c0,0.1-0.1,0.3-0.3,0.3h-1.7c-0.2,0-0.3-0.1-0.3-0.3V135z"/>
		<path fill="#FFFFFF" d="M74.7,132h-2c-0.2,0-0.3-0.1-0.3-0.3v-1.5c0-0.1,0.1-0.3,0.3-0.3H79c0.2,0,0.3,0.1,0.3,0.3v1.5
			c0,0.1-0.1,0.3-0.3,0.3h-2v7.5c0,0.1-0.1,0.3-0.3,0.3H75c-0.1,0-0.3-0.1-0.3-0.3V132z"/>
		<path fill="#FFFFFF" d="M83.4,130.2c0-0.1,0.1-0.3,0.3-0.3h1.7c0.1,0,0.3,0.1,0.3,0.3v9.2c0,0.1-0.1,0.3-0.3,0.3h-1.7
			c-0.1,0-0.3-0.1-0.3-0.3V130.2z"/>
		<path fill="#FFFFFF" d="M94.4,129.9c1.4,0,2.4,0.4,3.4,1.3c0.1,0.1,0.1,0.3,0,0.4l-1.1,1.1c-0.1,0.1-0.3,0.1-0.4,0
			c-0.6-0.5-1.2-0.7-1.9-0.7c-1.6,0-2.8,1.3-2.8,2.9c0,1.5,1.2,2.8,2.8,2.8c0.8,0,1.4-0.2,1.9-0.7c0.1-0.1,0.3-0.1,0.4,0l1.1,1.2
			c0.1,0.1,0.1,0.3,0,0.4c-1,0.9-2.2,1.4-3.4,1.4c-2.8,0-5.1-2.2-5.1-5C89.3,132.2,91.6,129.9,94.4,129.9z"/>
		<path fill="#FFFFFF" d="M101.4,138.9c-0.1-0.1-0.2-0.2-0.1-0.4l0.6-1.1c0.1-0.2,0.3-0.2,0.5-0.1c0.4,0.3,1.1,0.8,2,0.8
			c0.6,0,1-0.3,1-0.8c0-0.6-0.5-1-1.4-1.4c-1.4-0.7-2.7-1.4-2.7-3.1c0-1.4,1.1-2.8,3.2-2.8c1.5,0,2.6,0.7,3,1
			c0.2,0.1,0.1,0.3,0.1,0.4l-0.7,1.1c-0.1,0.2-0.3,0.3-0.6,0.1c-0.3-0.2-1.2-0.8-1.9-0.8c-0.6,0-0.9,0.4-0.9,0.8
			c0,0.5,0.5,0.8,1.5,1.3c1.2,0.6,2.8,1.3,2.8,3.2c0,1.4-1.3,2.9-3.3,2.9C102.7,140,101.7,139.2,101.4,138.9z"/>
	</g>
</g>
</svg>
